<svg class="diagram-root" style="background: #f5f6f6" xmlns="http://www.w3.org/2000/svg" xmlns:xlink="http://www.w3.org/1999/xlink"><style>.diagram-root { font-family: "Helvetica Neue", sans-serif; font-size: 12px; } .t { overflow: visible; } .t-bg { y: 40; fill: #fff;   } .th { fill: #005aa0;   } .tht { fill: #fff; font-size: 14px;  } .tf { fill: #323c46; overflow: visible; } .tf.pk { fill: #005aa0; font-weight: bold; } .tf.fk { font-weight: bold; } .ty { fill: #adb1b5; font-weight: normal; text-anchor: end; } .r { fill: transparent; stroke: #c3c3c3; stroke-width: 1; } .l { stroke: 1; } .i { fill: #c2c7ce; stroke: #c2c7ce; } .i.ix { fill: #afb3b6; stroke: #000; } .fa { fill: transparent; overflow: visible; } .fa .bg.hover { fill: #f7f7f7; } .c { cy: 12; r: 4; stroke: #d2d2dc; fill: #d2d2dc; } .hr { fill: transparent; stroke: #323c46; stroke-opacity: 0.035; stroke-width: 13; } .dc { stroke: #fa5a3c; fill: #fa5a3c; } .x { stroke: white; stroke-width: 1; } .hl .th { fill: #1b9bff; } .hl .tht {  } .fhl .bg { fill: #e7f4ff; } .fhls .bg {  } .r.hl { stroke: #1b9bff; } .dim { opacity: 0.25; }</style><g class="drawing-wrapper" transform="translate(-145, -63) scale(1,1)"><g class="rs"><path d="M 687 432 m -1, 0 a 1,1 0 1,0 2,0 a 1,1 0 1,0 -2,0 M 687 432 m -0.5, 0 a 0.5,0.5 0 1,0 1,0 a 0.5,0.5 0 1,0 -1,0  M687 432 L687 432 675 432 M 687 438 m -1, 0 a 1,1 0 1,0 2,0 a 1,1 0 1,0 -2,0 M 687 438 m -0.5, 0 a 0.5,0.5 0 1,0 1,0 a 0.5,0.5 0 1,0 -1,0  M687 438 L687 438 680 432 687 426 M 687 426 m -1, 0 a 1,1 0 1,0 2,0 a 1,1 0 1,0 -2,0 M 687 426 m -0.5, 0 a 0.5,0.5 0 1,0 1,0 a 0.5,0.5 0 1,0 -1,0  M675 432 C 625 432, 605.8 214, 707 214 M 719 214 m -1, 0 a 1,1 0 1,0 2,0 a 1,1 0 1,0 -2,0 M 719 214 m -0.5, 0 a 0.5,0.5 0 1,0 1,0 a 0.5,0.5 0 1,0 -1,0  M719 214 L719 214 707 214 M713 220 L713 220 713 208" id="h2393061165" class="r"></path><path d="M 608.03 175 m -1, 0 a 1,1 0 1,0 2,0 a 1,1 0 1,0 -2,0 M 608.03 175 m -0.5, 0 a 0.5,0.5 0 1,0 1,0 a 0.5,0.5 0 1,0 -1,0  M608.03 175 L608.03 175 620.03 175 M 608.03 181 m -1, 0 a 1,1 0 1,0 2,0 a 1,1 0 1,0 -2,0 M 608.03 181 m -0.5, 0 a 0.5,0.5 0 1,0 1,0 a 0.5,0.5 0 1,0 -1,0  M608.03 181 L608.03 181 615.03 175 608.03 169 M 608.03 169 m -1, 0 a 1,1 0 1,0 2,0 a 1,1 0 1,0 -2,0 M 608.03 169 m -0.5, 0 a 0.5,0.5 0 1,0 1,0 a 0.5,0.5 0 1,0 -1,0  M620.03 175 Q 641.78 175, 663.52 194.5 T 707 214 M 719 214 m -1, 0 a 1,1 0 1,0 2,0 a 1,1 0 1,0 -2,0 M 719 214 m -0.5, 0 a 0.5,0.5 0 1,0 1,0 a 0.5,0.5 0 1,0 -1,0  M719 214 L719 214 707 214 M713 220 L713 220 713 208" id="h1258277223" class="r"></path><path d="M 464 200 m -1, 0 a 1,1 0 1,0 2,0 a 1,1 0 1,0 -2,0 M 464 200 m -0.5, 0 a 0.5,0.5 0 1,0 1,0 a 0.5,0.5 0 1,0 -1,0  M464 200 L464 200 452 200 M 464 206 m -1, 0 a 1,1 0 1,0 2,0 a 1,1 0 1,0 -2,0 M 464 206 m -0.5, 0 a 0.5,0.5 0 1,0 1,0 a 0.5,0.5 0 1,0 -1,0  M464 206 L464 206 457 200 464 194 M 464 194 m -1, 0 a 1,1 0 1,0 2,0 a 1,1 0 1,0 -2,0 M 464 194 m -0.5, 0 a 0.5,0.5 0 1,0 1,0 a 0.5,0.5 0 1,0 -1,0  M452 200 Q 436.68 200, 421.36 219.5 T 390.71 239 M 378.71 239 m -1, 0 a 1,1 0 1,0 2,0 a 1,1 0 1,0 -2,0 M 378.71 239 m -0.5, 0 a 0.5,0.5 0 1,0 1,0 a 0.5,0.5 0 1,0 -1,0  M378.71 239 L378.71 239 390.71 239 M384.71 245 L384.71 245 384.71 233" id="h812746752" class="r"></path><path d="M 365.07 461 m -1, 0 a 1,1 0 1,0 2,0 a 1,1 0 1,0 -2,0 M 365.07 461 m -0.5, 0 a 0.5,0.5 0 1,0 1,0 a 0.5,0.5 0 1,0 -1,0  M365.07 461 L365.07 461 377.07 461 M 365.07 467 m -1, 0 a 1,1 0 1,0 2,0 a 1,1 0 1,0 -2,0 M 365.07 467 m -0.5, 0 a 0.5,0.5 0 1,0 1,0 a 0.5,0.5 0 1,0 -1,0  M365.07 467 L365.07 467 372.07 461 365.07 455 M 365.07 455 m -1, 0 a 1,1 0 1,0 2,0 a 1,1 0 1,0 -2,0 M 365.07 455 m -0.5, 0 a 0.5,0.5 0 1,0 1,0 a 0.5,0.5 0 1,0 -1,0  M377.07 461 C 448.89399999999995 461, 440.71 239, 390.71 239 M 378.71 239 m -1, 0 a 1,1 0 1,0 2,0 a 1,1 0 1,0 -2,0 M 378.71 239 m -0.5, 0 a 0.5,0.5 0 1,0 1,0 a 0.5,0.5 0 1,0 -1,0  M378.71 239 L378.71 239 390.71 239 M384.71 245 L384.71 245 384.71 233" id="h3750219334" class="r"></path><path d="M 365.07 486 m -1, 0 a 1,1 0 1,0 2,0 a 1,1 0 1,0 -2,0 M 365.07 486 m -0.5, 0 a 0.5,0.5 0 1,0 1,0 a 0.5,0.5 0 1,0 -1,0  M365.07 486 L365.07 486 377.07 486 M 365.07 492 m -1, 0 a 1,1 0 1,0 2,0 a 1,1 0 1,0 -2,0 M 365.07 492 m -0.5, 0 a 0.5,0.5 0 1,0 1,0 a 0.5,0.5 0 1,0 -1,0  M365.07 492 L365.07 492 372.07 486 365.07 480 M 365.07 480 m -1, 0 a 1,1 0 1,0 2,0 a 1,1 0 1,0 -2,0 M 365.07 480 m -0.5, 0 a 0.5,0.5 0 1,0 1,0 a 0.5,0.5 0 1,0 -1,0  M377.07 486 C 448.89399999999995 486, 440.71 239, 390.71 239 M 378.71 239 m -1, 0 a 1,1 0 1,0 2,0 a 1,1 0 1,0 -2,0 M 378.71 239 m -0.5, 0 a 0.5,0.5 0 1,0 1,0 a 0.5,0.5 0 1,0 -1,0  M378.71 239 L378.71 239 390.71 239 M384.71 245 L384.71 245 384.71 233" id="h3773101666" class="r"></path></g><g class="hrs"></g><g class="ts"><svg width="172.06" height="175" x="719" y="157" id="h4200617828" class="t"><rect height="40" width="172.06" class="th"></rect><text x="13" y="25" class="tht">film</text><rect height="135" width="172.06" class="t-bg"></rect><text x="13" y="61" class="tf pk">film_id<tspan x="159.06" class="ty">int</tspan></text><path d="M7,14A2,2 0 0,1 5,12A2,2 0 0,1 7,10A2,2 0 0,1 9,12A2,2 0 0,1 7,14M12.65,10C11.83,7.67 9.61,6 7, 6A6, 6 0 0, 0 1, 12A6, 6 0 0, 0 7, 18C9.61, 18 11.83, 16.33 12.65, 14H17V18H21V14H23V10H12.65Z" class="i pk" transform="translate(126.386171875, 48) scale(0.65)"></path><text x="13" y="86" class="tf">title<tspan x="159.06" class="ty">varchar(50)</tspan></text><text x="13" y="111" class="tf">description<tspan x="159.06" class="ty">varchar(200)</tspan></text><text x="13" y="136" class="tf">release_date<tspan x="159.06" class="ty">date</tspan></text><text x="13" y="161" class="tf">duration<tspan x="159.06" class="ty">int</tspan></text></svg><svg width="148.71" height="175" x="230" y="182" id="h2948373614" class="t"><rect height="40" width="148.71" class="th"></rect><text x="13" y="25" class="tht">users</text><rect height="135" width="148.71" class="t-bg"></rect><text x="13" y="61" class="tf pk">user_id<tspan x="135.71" class="ty">int</tspan></text><path d="M7,14A2,2 0 0,1 5,12A2,2 0 0,1 7,10A2,2 0 0,1 9,12A2,2 0 0,1 7,14M12.65,10C11.83,7.67 9.61,6 7, 6A6, 6 0 0, 0 1, 12A6, 6 0 0, 0 7, 18C9.61, 18 11.83, 16.33 12.65, 14H17V18H21V14H23V10H12.65Z" class="i pk" transform="translate(103.03617187500001, 48) scale(0.65)"></path><text x="13" y="86" class="tf">email<tspan x="135.71" class="ty">varchar(50)</tspan></text><text x="13" y="111" class="tf">login<tspan x="135.71" class="ty">varchar(50)</tspan></text><path d="M22,18V22H18V19H15V16H12L9.74,13.74C9.19,13.91 8.61,14 8,14A6,6 0 0,1 2,8A6,6 0 0,1 8,2A6,6 0 0,1 14,8C14,8.61 13.91, 9.19 13.74, 9.74L22, 18M7, 5A2, 2 0 0, 0 5, 7A2, 2 0 0, 0 7, 9A2, 2 0 0, 0 9, 7A2, 2 0 0, 0 7, 5Z" class="i uq" transform="translate(58.35648437500001, 100.5) scale(0.5)"></path><text x="13" y="136" class="tf">name<tspan x="135.71" class="ty">varchar(50)</tspan></text><text x="13" y="161" class="tf">birthday<tspan x="135.71" class="ty">date</tspan></text></svg><svg width="198.07" height="150" x="167" y="379" id="h1476665440" class="t"><rect height="40" width="198.07" class="th"></rect><text x="13" y="25" class="tht">friendship</text><rect height="110" width="198.07" class="t-bg"></rect><text x="13" y="61" class="tf pk">friendship_id<tspan x="185.07" class="ty">int</tspan></text><path d="M7,14A2,2 0 0,1 5,12A2,2 0 0,1 7,10A2,2 0 0,1 9,12A2,2 0 0,1 7,14M12.65,10C11.83,7.67 9.61,6 7, 6A6, 6 0 0, 0 1, 12A6, 6 0 0, 0 7, 18C9.61, 18 11.83, 16.33 12.65, 14H17V18H21V14H23V10H12.65Z" class="i pk" transform="translate(152.396171875, 48) scale(0.65)"></path><text x="13" y="86" class="tf fk">user_id<tspan x="185.07" class="ty">int</tspan></text><text x="13" y="111" class="tf fk">friend_id<tspan x="185.07" class="ty">int</tspan></text><text x="13" y="136" class="tf">friendship_status<tspan x="185.07" class="ty">varchar(50)</tspan></text></svg><svg width="144.03" height="125" x="464" y="93" id="h242094811" class="t"><rect height="40" width="144.03" class="th"></rect><text x="13" y="25" class="tht">film_likes</text><rect height="85" width="144.03" class="t-bg"></rect><text x="13" y="61" class="tf pk">film_likes_id<tspan x="131.03" class="ty">int</tspan></text><path d="M7,14A2,2 0 0,1 5,12A2,2 0 0,1 7,10A2,2 0 0,1 9,12A2,2 0 0,1 7,14M12.65,10C11.83,7.67 9.61,6 7, 6A6, 6 0 0, 0 1, 12A6, 6 0 0, 0 7, 18C9.61, 18 11.83, 16.33 12.65, 14H17V18H21V14H23V10H12.65Z" class="i pk" transform="translate(98.356171875, 48) scale(0.65)"></path><text x="13" y="86" class="tf fk">film_id<tspan x="131.03" class="ty">int</tspan></text><text x="13" y="111" class="tf fk">user_id<tspan x="131.03" class="ty">int</tspan></text></svg><svg width="138.04" height="100" x="687" y="375" id="h1016190631" class="t"><rect height="40" width="138.04" class="th"></rect><text x="13" y="25" class="tht">film_genre</text><rect height="60" width="138.04" class="t-bg"></rect><text x="13" y="61" class="tf pk">film_id</text><path d="M7,14A2,2 0 0,1 5,12A2,2 0 0,1 7,10A2,2 0 0,1 9,12A2,2 0 0,1 7,14M12.65,10C11.83,7.67 9.61,6 7, 6A6, 6 0 0, 0 1, 12A6, 6 0 0, 0 7, 18C9.61, 18 11.83, 16.33 12.65, 14H17V18H21V14H23V10H12.65Z" class="i pk" transform="translate(110.03999999999999, 48) scale(0.65)"></path><text x="13" y="86" class="tf">genre<tspan x="125.03999999999999" class="ty">varchar(50)</tspan></text></svg></g></g><text class="qdbd-link" x="10" y="20">www.quickdatabasediagrams.com</text></svg>